<svg width="16" height="16" viewBox="0 0 16 16" fill="none" xmlns="http://www.w3.org/2000/svg">
<g clip-path="url(#clip0_8033_3979)">
<path fill-rule="evenodd" clip-rule="evenodd" d="M4.90691 12.5521L11.5235 5.93548L11.5235 11.0747C11.5227 11.1803 11.5427 11.2851 11.5826 11.3829C11.6224 11.4807 11.6812 11.5696 11.7555 11.6446C11.8299 11.7196 11.9184 11.7791 12.0159 11.8197C12.1133 11.8603 12.2179 11.8812 12.3235 11.8812C12.4291 11.8812 12.5337 11.8603 12.6312 11.8197C12.7286 11.7791 12.8171 11.7196 12.8915 11.6446C12.9659 11.5696 13.0247 11.4807 13.0645 11.3829C13.1043 11.2851 13.1243 11.1803 13.1235 11.0747L13.1235 4.00367C13.124 4.00131 13.1225 3.99895 13.1225 3.99612C13.121 3.83942 13.0734 3.68664 12.9857 3.55674C12.8981 3.42685 12.7742 3.32556 12.6295 3.26545C12.5338 3.22632 12.4338 3.20652 12.3315 3.20511L12.3235 3.20369L5.25245 3.20369C5.03136 3.20416 4.83195 3.2942 4.6877 3.43845C4.57586 3.55031 4.49968 3.69281 4.46881 3.84794C4.43793 4.00308 4.45373 4.16389 4.51422 4.31004C4.57471 4.4562 4.67717 4.58114 4.80866 4.66908C4.94014 4.75702 5.09474 4.80401 5.25292 4.80411L10.3917 4.80458L3.77507 11.4212C3.62504 11.5712 3.54075 11.7747 3.54075 11.9869C3.54075 12.1991 3.62504 12.4026 3.77506 12.5526C3.92509 12.7026 4.12858 12.7869 4.34075 12.7869C4.55292 12.7869 4.75641 12.7026 4.90644 12.5526" fill="url(#paint0_linear_8033_3979)"/>
</g>
<defs>
<linearGradient id="paint0_linear_8033_3979" x1="16.9929" y1="7.54321" x2="3.5634" y2="15.6284" gradientUnits="userSpaceOnUse">
<stop stop-color="#12B983"/>
<stop offset="1" stop-color="#06B6D3"/>
</linearGradient>
<clipPath id="clip0_8033_3979">
<rect width="16" height="16" fill="white"/>
</clipPath>
</defs>
</svg>
