<svg width="32" height="32" viewBox="0 0 32 32" fill="none" xmlns="http://www.w3.org/2000/svg">
<g clip-path="url(#clip0_8033_4079)">
<path fill-rule="evenodd" clip-rule="evenodd" d="M9.81406 25.1042L23.0473 11.871L23.0473 22.1495C23.0456 22.3607 23.0857 22.5701 23.1654 22.7657C23.245 22.9614 23.3626 23.1393 23.5113 23.2893C23.66 23.4392 23.837 23.5582 24.032 23.6395C24.2269 23.7207 24.4361 23.7625 24.6473 23.7625C24.8585 23.7625 25.0676 23.7207 25.2626 23.6395C25.4575 23.5582 25.6345 23.4392 25.7832 23.2893C25.932 23.1393 26.0496 22.9614 26.1292 22.7657C26.2088 22.5701 26.2489 22.3607 26.2472 22.1495L26.2472 8.00733C26.2482 8.00262 26.2453 7.9979 26.2453 7.99225C26.2421 7.67885 26.147 7.37328 25.9717 7.11349C25.7964 6.8537 25.5486 6.65111 25.2592 6.53089C25.0678 6.45264 24.8679 6.41304 24.6633 6.41021L24.6473 6.40738L10.5051 6.40738C10.063 6.40833 9.66415 6.5884 9.37565 6.8769C9.15196 7.10061 8.99961 7.38561 8.93786 7.69589C8.8761 8.00616 8.90771 8.32778 9.02869 8.62009C9.14967 8.9124 9.35459 9.16229 9.61756 9.33817C9.88052 9.51405 10.1897 9.60802 10.5061 9.60822L20.7836 9.60916L7.55038 22.8424C7.25032 23.1425 7.08174 23.5495 7.08174 23.9738C7.08174 24.3981 7.25032 24.8051 7.55037 25.1052C7.85043 25.4052 8.2574 25.5738 8.68174 25.5738C9.10609 25.5738 9.51306 25.4052 9.81312 25.1052" fill="#8E85BE"/>
</g>
<defs>
<clipPath id="clip0_8033_4079">
<rect width="32" height="32" fill="white"/>
</clipPath>
</defs>
</svg>
