<svg width="16" height="16" viewBox="0 0 16 16" fill="none" xmlns="http://www.w3.org/2000/svg">
<path fill-rule="evenodd" clip-rule="evenodd" d="M4.49133 14.1667H2.66667C2.48986 14.1667 2.32029 14.0965 2.19526 13.9715C2.07024 13.8465 2 13.6769 2 13.5001V9.14942C2 8.9726 2.07024 8.80303 2.19526 8.67801C2.32029 8.55299 2.48986 8.48275 2.66667 8.48275H4.49133C4.66814 8.48275 4.83771 8.55299 4.96274 8.67801C5.08776 8.80303 5.158 8.9726 5.158 9.14942V13.5001C5.158 13.6769 5.08776 13.8465 4.96274 13.9715C4.83771 14.0965 4.66814 14.1667 4.49133 14.1667ZM8.91267 14.1667H7.088C6.91119 14.1667 6.74162 14.0965 6.6166 13.9715C6.49157 13.8465 6.42133 13.6769 6.42133 13.5001V5.99142C6.42133 5.8146 6.49157 5.64503 6.6166 5.52001C6.74162 5.39499 6.91119 5.32475 7.088 5.32475H8.91267C9.08948 5.32475 9.25905 5.39499 9.38407 5.52001C9.5091 5.64503 9.57933 5.8146 9.57933 5.99142V13.5001C9.57933 13.6769 9.5091 13.8465 9.38407 13.9715C9.25905 14.0965 9.08948 14.1667 8.91267 14.1667ZM13.3333 14.1667H11.5087C11.3319 14.1667 11.1623 14.0965 11.0373 13.9715C10.9122 13.8465 10.842 13.6769 10.842 13.5001V2.83341C10.842 2.6566 10.9122 2.48703 11.0373 2.36201C11.1623 2.23699 11.3319 2.16675 11.5087 2.16675H13.3333C13.5101 2.16675 13.6797 2.23699 13.8047 2.36201C13.9298 2.48703 14 2.6566 14 2.83341V13.5001C14 13.6769 13.9298 13.8465 13.8047 13.9715C13.6797 14.0965 13.5101 14.1667 13.3333 14.1667Z" fill="url(#paint0_linear_8033_3952)"/>
<defs>
<linearGradient id="paint0_linear_8033_3952" x1="2" y1="2.16675" x2="16.322" y2="5.3697" gradientUnits="userSpaceOnUse">
<stop stop-color="#12B983"/>
<stop offset="1" stop-color="#06B6D3"/>
</linearGradient>
</defs>
</svg>
