<svg width="24" height="24" viewBox="0 0 24 24" fill="none" xmlns="http://www.w3.org/2000/svg">
<path d="M12 14C12.2833 14 12.5208 13.9042 12.7125 13.7125C12.9042 13.5208 13 13.2833 13 13V8C13 7.71667 12.9042 7.47917 12.7125 7.2875C12.5208 7.09583 12.2833 7 12 7C11.7167 7 11.4792 7.09583 11.2875 7.2875C11.0958 7.47917 11 7.71667 11 8V13C11 13.2833 11.0958 13.5208 11.2875 13.7125C11.4792 13.9042 11.7167 14 12 14ZM15 12.5C15.2833 12.5 15.5208 12.4042 15.7125 12.2125C15.9042 12.0208 16 11.7833 16 11.5V9C16 8.71667 15.9042 8.47917 15.7125 8.2875C15.5208 8.09583 15.2833 8 15 8C14.7167 8 14.4792 8.09583 14.2875 8.2875C14.0958 8.47917 14 8.71667 14 9V11.5C14 11.7833 14.0958 12.0208 14.2875 12.2125C14.4792 12.4042 14.7167 12.5 15 12.5ZM9 12C9.28333 12 9.52083 11.9042 9.7125 11.7125C9.90417 11.5208 10 11.2833 10 11V9C10 8.71667 9.90417 8.47917 9.7125 8.2875C9.52083 8.09583 9.28333 8 9 8C8.71667 8 8.47917 8.09583 8.2875 8.2875C8.09583 8.47917 8 8.71667 8 9V11C8 11.2833 8.09583 11.5208 8.2875 11.7125C8.47917 11.9042 8.71667 12 9 12ZM7 22C6.71667 22 6.47917 21.9042 6.2875 21.7125C6.09583 21.5208 6 21.2833 6 21V17.7C5.05 16.8333 4.3125 15.8208 3.7875 14.6625C3.2625 13.5042 3 12.2833 3 11C3 8.5 3.875 6.375 5.625 4.625C7.375 2.875 9.5 2 12 2C14.0833 2 15.9292 2.6125 17.5375 3.8375C19.1458 5.0625 20.1917 6.65833 20.675 8.625L21.975 13.75C22.0583 14.0667 22 14.3542 21.8 14.6125C21.6 14.8708 21.3333 15 21 15H19V18C19 18.55 18.8042 19.0208 18.4125 19.4125C18.0208 19.8042 17.55 20 17 20H15V21C15 21.2833 14.9042 21.5208 14.7125 21.7125C14.5208 21.9042 14.2833 22 14 22H7Z" fill="#9095FB"/>
</svg>
