<svg width="28" height="27" viewBox="0 0 28 27" fill="none" xmlns="http://www.w3.org/2000/svg">
<path fill-rule="evenodd" clip-rule="evenodd" d="M22.7939 16.9784C22.7939 17.353 22.6473 17.7276 22.3705 18.0207C22.0958 18.2942 21.724 18.4478 21.3363 18.4478C20.9487 18.4478 20.5769 18.2942 20.3022 18.0207L13.9996 11.7182L7.71333 18.0207C7.43864 18.2942 7.06681 18.4478 6.67919 18.4478C6.29157 18.4478 5.91973 18.2942 5.64505 18.0207C5.37156 17.746 5.21802 17.3742 5.21802 16.9866C5.21802 16.599 5.37156 16.2271 5.64505 15.9524L12.9736 8.62387C13.2483 8.35038 13.6201 8.19684 14.0078 8.19684C14.3954 8.19684 14.7672 8.35038 15.0419 8.62387L22.3705 15.9524C22.6473 16.2293 22.7939 16.6039 22.7939 16.9784" fill="white"/>
</svg>
