<svg width="16" height="16" viewBox="0 0 16 16" fill="none" xmlns="http://www.w3.org/2000/svg">
<path fill-rule="evenodd" clip-rule="evenodd" d="M4.49133 14.1665H2.66667C2.48986 14.1665 2.32029 14.0963 2.19526 13.9712C2.07024 13.8462 2 13.6766 2 13.4998V9.14917C2 8.97236 2.07024 8.80279 2.19526 8.67777C2.32029 8.55274 2.48986 8.4825 2.66667 8.4825H4.49133C4.66814 8.4825 4.83771 8.55274 4.96274 8.67777C5.08776 8.80279 5.158 8.97236 5.158 9.14917V13.4998C5.158 13.6766 5.08776 13.8462 4.96274 13.9712C4.83771 14.0963 4.66814 14.1665 4.49133 14.1665ZM8.91267 14.1665H7.088C6.91119 14.1665 6.74162 14.0963 6.6166 13.9712C6.49157 13.8462 6.42133 13.6766 6.42133 13.4998V5.99117C6.42133 5.81436 6.49157 5.64479 6.6166 5.51977C6.74162 5.39474 6.91119 5.3245 7.088 5.3245H8.91267C9.08948 5.3245 9.25905 5.39474 9.38407 5.51977C9.5091 5.64479 9.57933 5.81436 9.57933 5.99117V13.4998C9.57933 13.6766 9.5091 13.8462 9.38407 13.9712C9.25905 14.0963 9.08948 14.1665 8.91267 14.1665ZM13.3333 14.1665H11.5087C11.3319 14.1665 11.1623 14.0963 11.0373 13.9712C10.9122 13.8462 10.842 13.6766 10.842 13.4998V2.83317C10.842 2.65636 10.9122 2.48679 11.0373 2.36177C11.1623 2.23674 11.3319 2.1665 11.5087 2.1665H13.3333C13.5101 2.1665 13.6797 2.23674 13.8047 2.36177C13.9298 2.48679 14 2.65636 14 2.83317V13.4998C14 13.6766 13.9298 13.8462 13.8047 13.9712C13.6797 14.0963 13.5101 14.1665 13.3333 14.1665Z" fill="url(#paint0_linear_8033_4441)"/>
<defs>
<linearGradient id="paint0_linear_8033_4441" x1="2" y1="2.1665" x2="16.322" y2="5.36945" gradientUnits="userSpaceOnUse">
<stop stop-color="#12B983"/>
<stop offset="1" stop-color="#06B6D3"/>
</linearGradient>
</defs>
</svg>
