<svg width="24" height="24" viewBox="0 0 24 24" fill="none" xmlns="http://www.w3.org/2000/svg">
<path fill-rule="evenodd" clip-rule="evenodd" d="M18.0001 13.3H15.9131L15.1721 15.992C15.115 16.2052 14.9888 16.3934 14.8133 16.5271C14.6377 16.6609 14.4228 16.7326 14.2021 16.731C13.9815 16.7327 13.7666 16.661 13.5912 16.5272C13.4158 16.3935 13.2898 16.2052 13.2331 15.992L12.0001 11.514L10.7681 15.992C10.7112 16.2051 10.5852 16.3933 10.4098 16.527C10.2344 16.6608 10.0196 16.7325 9.7991 16.731H9.7981C9.57756 16.7326 9.36271 16.6611 9.18719 16.5275C9.01167 16.394 8.88539 16.206 8.8281 15.993L8.0871 13.3H6.0001C5.78792 13.3 5.58444 13.2158 5.43441 13.0657C5.28438 12.9157 5.2001 12.7122 5.2001 12.5C5.2001 12.2879 5.28438 12.0844 5.43441 11.9344C5.58444 11.7843 5.78792 11.7 6.0001 11.7H7.6461L6.9811 9.28104C6.9495 9.17866 6.93879 9.07098 6.94961 8.96438C6.96042 8.85779 6.99254 8.75445 7.04406 8.6605C7.09557 8.56655 7.16543 8.48391 7.2495 8.41747C7.33356 8.35104 7.43011 8.30217 7.53342 8.27376C7.63673 8.24536 7.7447 8.23799 7.85091 8.2521C7.95712 8.26622 8.05941 8.30152 8.15172 8.35593C8.24402 8.41033 8.32446 8.48272 8.38826 8.5688C8.45205 8.65488 8.49791 8.7529 8.5231 8.85705L9.7981 13.486L11.0301 9.00805C11.0872 8.79488 11.2134 8.60669 11.3889 8.47296C11.5645 8.33922 11.7794 8.26751 12.0001 8.26904C12.4581 8.26904 12.8481 8.56605 12.9701 9.00805L14.2021 13.486L15.4771 8.85705C15.5333 8.65243 15.6685 8.47853 15.853 8.37361C15.9443 8.32165 16.045 8.28819 16.1492 8.27514C16.2535 8.26209 16.3593 8.2697 16.4606 8.29754C16.5619 8.32538 16.6568 8.37291 16.7397 8.4374C16.8226 8.50189 16.8921 8.58209 16.944 8.67342C16.996 8.76475 17.0294 8.86541 17.0425 8.96967C17.0555 9.07392 17.0479 9.17973 17.0201 9.28104L16.3541 11.7H18.0001C18.1052 11.7 18.2092 11.7207 18.3062 11.7609C18.4033 11.8011 18.4915 11.8601 18.5658 11.9344C18.6401 12.0086 18.699 12.0968 18.7392 12.1939C18.7794 12.291 18.8001 12.395 18.8001 12.5C18.8001 12.6051 18.7794 12.7091 18.7392 12.8062C18.699 12.9033 18.6401 12.9914 18.5658 13.0657C18.4915 13.14 18.4033 13.1989 18.3062 13.2391C18.2092 13.2794 18.1052 13.3 18.0001 13.3ZM21.0001 1.94604H3.0001C2.7614 1.94604 2.53248 2.04087 2.3637 2.20965C2.19492 2.37843 2.1001 2.60735 2.1001 2.84604C2.1001 3.08474 2.19492 3.31366 2.3637 3.48244C2.53248 3.65122 2.7614 3.74604 3.0001 3.74604V20.846C3.0001 21.1113 3.10545 21.3656 3.29299 21.5532C3.48053 21.7407 3.73488 21.846 4.0001 21.846H20.0001C20.2653 21.846 20.5197 21.7407 20.7072 21.5532C20.8947 21.3656 21.0001 21.1113 21.0001 20.846V3.74604C21.2388 3.74604 21.4677 3.65122 21.6365 3.48244C21.8053 3.31366 21.9001 3.08474 21.9001 2.84604C21.9001 2.60735 21.8053 2.37843 21.6365 2.20965C21.4677 2.04087 21.2388 1.94604 21.0001 1.94604Z" fill="#8B95A1"/>
<path fill-rule="evenodd" clip-rule="evenodd" d="M18.0001 13.3H15.9131L15.1721 15.992C15.115 16.2052 14.9888 16.3934 14.8133 16.5271C14.6377 16.6609 14.4228 16.7326 14.2021 16.731C13.9815 16.7327 13.7666 16.661 13.5912 16.5272C13.4158 16.3935 13.2898 16.2052 13.2331 15.992L12.0001 11.514L10.7681 15.992C10.7112 16.2051 10.5852 16.3933 10.4098 16.527C10.2344 16.6608 10.0196 16.7325 9.7991 16.731H9.7981C9.57756 16.7326 9.36271 16.6611 9.18719 16.5275C9.01167 16.394 8.88539 16.206 8.8281 15.993L8.0871 13.3H6.0001C5.78792 13.3 5.58444 13.2158 5.43441 13.0657C5.28438 12.9157 5.2001 12.7122 5.2001 12.5C5.2001 12.2879 5.28438 12.0844 5.43441 11.9344C5.58444 11.7843 5.78792 11.7 6.0001 11.7H7.6461L6.9811 9.28104C6.9495 9.17866 6.93879 9.07098 6.94961 8.96438C6.96042 8.85779 6.99254 8.75445 7.04406 8.6605C7.09557 8.56655 7.16543 8.48391 7.2495 8.41747C7.33356 8.35104 7.43011 8.30217 7.53342 8.27376C7.63673 8.24536 7.7447 8.23799 7.85091 8.2521C7.95712 8.26622 8.05941 8.30152 8.15172 8.35593C8.24402 8.41033 8.32446 8.48272 8.38826 8.5688C8.45205 8.65488 8.49791 8.7529 8.5231 8.85705L9.7981 13.486L11.0301 9.00805C11.0872 8.79488 11.2134 8.60669 11.3889 8.47296C11.5645 8.33922 11.7794 8.26751 12.0001 8.26904C12.4581 8.26904 12.8481 8.56605 12.9701 9.00805L14.2021 13.486L15.4771 8.85705C15.5333 8.65243 15.6685 8.47853 15.853 8.37361C15.9443 8.32165 16.045 8.28819 16.1492 8.27514C16.2535 8.26209 16.3593 8.2697 16.4606 8.29754C16.5619 8.32538 16.6568 8.37291 16.7397 8.4374C16.8226 8.50189 16.8921 8.58209 16.944 8.67342C16.996 8.76475 17.0294 8.86541 17.0425 8.96967C17.0555 9.07392 17.0479 9.17973 17.0201 9.28104L16.3541 11.7H18.0001C18.1052 11.7 18.2092 11.7207 18.3062 11.7609C18.4033 11.8011 18.4915 11.8601 18.5658 11.9344C18.6401 12.0086 18.699 12.0968 18.7392 12.1939C18.7794 12.291 18.8001 12.395 18.8001 12.5C18.8001 12.6051 18.7794 12.7091 18.7392 12.8062C18.699 12.9033 18.6401 12.9914 18.5658 13.0657C18.4915 13.14 18.4033 13.1989 18.3062 13.2391C18.2092 13.2794 18.1052 13.3 18.0001 13.3ZM21.0001 1.94604H3.0001C2.7614 1.94604 2.53248 2.04087 2.3637 2.20965C2.19492 2.37843 2.1001 2.60735 2.1001 2.84604C2.1001 3.08474 2.19492 3.31366 2.3637 3.48244C2.53248 3.65122 2.7614 3.74604 3.0001 3.74604V20.846C3.0001 21.1113 3.10545 21.3656 3.29299 21.5532C3.48053 21.7407 3.73488 21.846 4.0001 21.846H20.0001C20.2653 21.846 20.5197 21.7407 20.7072 21.5532C20.8947 21.3656 21.0001 21.1113 21.0001 20.846V3.74604C21.2388 3.74604 21.4677 3.65122 21.6365 3.48244C21.8053 3.31366 21.9001 3.08474 21.9001 2.84604C21.9001 2.60735 21.8053 2.37843 21.6365 2.20965C21.4677 2.04087 21.2388 1.94604 21.0001 1.94604Z" fill="url(#paint0_linear_8033_4210)"/>
<defs>
<linearGradient id="paint0_linear_8033_4210" x1="12.0001" y1="1.94604" x2="12.0001" y2="21.846" gradientUnits="userSpaceOnUse">
<stop stop-color="white"/>
<stop offset="1" stop-color="#99A0AE"/>
</linearGradient>
</defs>
</svg>
