<svg width="24" height="24" viewBox="0 0 24 24" fill="none" xmlns="http://www.w3.org/2000/svg">
<path fill-rule="evenodd" clip-rule="evenodd" d="M12 3C17.0019 3 21.0566 6.66837 21.0566 11.1941C21.0566 13.3737 20.1096 15.349 18.576 16.8179L19.3247 20.4828C19.3406 20.5612 19.3344 20.6424 19.3068 20.7175C19.2792 20.7926 19.2313 20.8585 19.1684 20.9079C19.1055 20.9573 19.0301 20.9883 18.9506 20.9973C18.8711 21.0063 18.7907 20.993 18.7183 20.9589L14.6376 19.0329C13.7783 19.2689 12.8912 19.3885 12 19.3882C6.99814 19.3882 2.94335 15.7198 2.94335 11.1941C2.94335 6.66837 6.99814 3 12 3Z" fill="#666666"/>
</svg>
