<svg width="16" height="16" viewBox="0 0 16 16" fill="none" xmlns="http://www.w3.org/2000/svg">
<path fill-rule="evenodd" clip-rule="evenodd" d="M12.6874 7.2893L9.57203 6.2013L10.5134 1.5533C10.6647 0.803965 9.74003 0.325965 9.21669 0.881965L3.01003 7.47397C2.92326 7.56609 2.8609 7.67845 2.8286 7.80081C2.79631 7.92318 2.79511 8.05167 2.82512 8.17462C2.85513 8.29756 2.91539 8.41106 3.00042 8.50479C3.08546 8.59852 3.19257 8.6695 3.31203 8.7113L6.42669 9.7993L5.48669 14.4473C5.33403 15.196 6.25869 15.674 6.78269 15.1186L12.99 8.5253C13.3667 8.1253 13.206 7.46997 12.6874 7.2893Z" fill="#8B95A1"/>
<path fill-rule="evenodd" clip-rule="evenodd" d="M12.6874 7.2893L9.57203 6.2013L10.5134 1.5533C10.6647 0.803965 9.74003 0.325965 9.21669 0.881965L3.01003 7.47397C2.92326 7.56609 2.8609 7.67845 2.8286 7.80081C2.79631 7.92318 2.79511 8.05167 2.82512 8.17462C2.85513 8.29756 2.91539 8.41106 3.00042 8.50479C3.08546 8.59852 3.19257 8.6695 3.31203 8.7113L6.42669 9.7993L5.48669 14.4473C5.33403 15.196 6.25869 15.674 6.78269 15.1186L12.99 8.5253C13.3667 8.1253 13.206 7.46997 12.6874 7.2893Z" fill="url(#paint0_linear_8033_4513)"/>
<defs>
<linearGradient id="paint0_linear_8033_4513" x1="2.80347" y1="0.640137" x2="15.5112" y2="2.6467" gradientUnits="userSpaceOnUse">
<stop stop-color="#12B983"/>
<stop offset="1" stop-color="#06B6D3"/>
</linearGradient>
</defs>
</svg>
