<svg width="16" height="16" viewBox="0 0 16 16" fill="none" xmlns="http://www.w3.org/2000/svg">
<path d="M11.465 3.96484H4.535C2.31 3.96484 0.5 5.77484 0.5 7.99984C0.5 10.2248 2.31 12.0348 4.535 12.0348H11.465C13.69 12.0348 15.5 10.2248 15.5 7.99984C15.5 5.77484 13.69 3.96484 11.465 3.96484ZM11.465 11.5348H4.535C2.585 11.5348 1 9.94984 1 7.99984C1 6.04984 2.585 4.46484 4.535 4.46484H11.465C13.415 4.46484 15 6.04984 15 7.99984C15 9.94984 13.415 11.5348 11.465 11.5348Z" fill="#9095FB"/>
<path d="M11.4649 5.07227H4.53492C2.91992 5.07227 1.60742 6.38477 1.60742 7.99977C1.60742 9.61477 2.91992 10.9273 4.53492 10.9273H11.4649C13.0799 10.9273 14.3924 9.61477 14.3924 7.99977C14.3924 6.38477 13.0799 5.07227 11.4649 5.07227ZM8.81992 8.23727C8.56492 8.12977 8.28742 8.07477 8.00242 8.07477C7.42992 8.07477 6.89242 8.29727 6.48992 8.70227C6.43992 8.75227 6.37492 8.77477 6.31242 8.77477C6.24742 8.77477 6.18492 8.75227 6.13492 8.70227C6.03742 8.60477 6.03742 8.44727 6.13492 8.34977C6.63492 7.84977 7.29742 7.57477 8.00242 7.57477C8.70742 7.57477 9.36992 7.84977 9.86742 8.34727C9.96492 8.44477 9.96492 8.60227 9.86742 8.69977C9.76992 8.79727 9.60992 8.79727 9.51242 8.69977C9.30992 8.49977 9.07492 8.34227 8.81992 8.23727ZM9.04992 9.51727C8.95242 9.61477 8.79492 9.61477 8.69742 9.51727C8.31242 9.13477 7.68992 9.13477 7.30492 9.51977C7.25742 9.56727 7.19242 9.59227 7.12992 9.59227C7.06492 9.59227 6.99992 9.56727 6.95242 9.51977C6.85492 9.42227 6.85492 9.26476 6.95242 9.16726C7.52992 8.58727 8.47242 8.58727 9.04992 9.16477C9.14742 9.26227 9.14742 9.41977 9.04992 9.51727ZM10.6924 7.87477C10.5949 7.97227 10.4374 7.97227 10.3374 7.87477C9.04992 6.58477 6.94992 6.58477 5.66242 7.87477C5.61242 7.92477 5.54742 7.94727 5.48492 7.94727C5.41992 7.94727 5.35742 7.92477 5.30742 7.87477C5.20992 7.77727 5.20992 7.61977 5.30742 7.52227C6.79242 6.03727 9.20742 6.03727 10.6924 7.52227C10.7899 7.61977 10.7899 7.77727 10.6924 7.87477Z" fill="url(#paint0_linear_8033_4481)"/>
<defs>
<linearGradient id="paint0_linear_8033_4481" x1="1.60742" y1="5.07227" x2="14.5444" y2="11.3899" gradientUnits="userSpaceOnUse">
<stop stop-color="#12B983"/>
<stop offset="1" stop-color="#06B6D3"/>
</linearGradient>
</defs>
</svg>
