<svg width="32" height="32" viewBox="0 0 32 32" fill="none" xmlns="http://www.w3.org/2000/svg">
<path fill-rule="evenodd" clip-rule="evenodd" d="M28.2799 21.4733L26.2359 20.4507L18.0866 24.5253C17.4384 24.8482 16.724 25.0157 15.9999 25.0147C15.2758 25.0156 14.5614 24.848 13.9132 24.5253L5.76389 20.4507L3.71856 21.4733C3.49668 21.5839 3.31003 21.7542 3.17956 21.965C3.04909 22.1758 2.97998 22.4188 2.97998 22.6667C2.97998 22.9146 3.04909 23.1576 3.17956 23.3684C3.31003 23.5792 3.49668 23.7494 3.71856 23.86L14.8079 29.4027C15.1781 29.5882 15.5865 29.6847 16.0006 29.6847C16.4146 29.6847 16.823 29.5882 17.1932 29.4027L28.2812 23.8587C28.5028 23.748 28.6891 23.5777 28.8193 23.3671C28.9495 23.1564 29.0185 22.9137 29.0185 22.666C29.0185 22.4184 28.9495 22.1756 28.8193 21.9649C28.6891 21.7543 28.5028 21.5841 28.2812 21.4733" fill="#8E85BE"/>
<path fill-rule="evenodd" clip-rule="evenodd" d="M28.2799 14.8068L26.2359 13.7842L18.0866 17.8588C17.4384 18.1817 16.724 18.3492 15.9999 18.3482C15.2758 18.3491 14.5614 18.1815 13.9132 17.8588L5.76389 13.7842L3.71856 14.8068C3.49668 14.9174 3.31003 15.0877 3.17956 15.2985C3.04909 15.5093 2.97998 15.7523 2.97998 16.0002C2.97998 16.2481 3.04909 16.4911 3.17956 16.7019C3.31003 16.9127 3.49668 17.0829 3.71856 17.1935L14.8079 22.7362C15.1781 22.9217 15.5865 23.0182 16.0006 23.0182C16.4146 23.0182 16.823 22.9217 17.1932 22.7362L28.2812 17.1922C28.5028 17.0815 28.6891 16.9112 28.8193 16.7006C28.9495 16.4899 29.0185 16.2472 29.0185 15.9995C29.0185 15.7519 28.9495 15.5091 28.8193 15.2984C28.6891 15.0878 28.5028 14.9176 28.2812 14.8068" fill="#8E85BE"/>
<path fill-rule="evenodd" clip-rule="evenodd" d="M14.8078 16.0708L3.7198 10.5255C3.49862 10.4146 3.31265 10.2444 3.18268 10.0339C3.05272 9.8234 2.98389 9.58088 2.98389 9.33348C2.98389 9.08608 3.05272 8.84356 3.18268 8.63305C3.31265 8.42253 3.49862 8.25233 3.7198 8.14148L14.8078 2.59748C15.178 2.412 15.5864 2.31543 16.0005 2.31543C16.4145 2.31543 16.8229 2.412 17.1931 2.59748L28.2811 8.14148C28.5027 8.2522 28.689 8.42242 28.8192 8.63308C28.9494 8.84373 29.0184 9.08649 29.0184 9.33415C29.0184 9.5818 28.9494 9.82456 28.8192 10.0352C28.689 10.2459 28.5027 10.4161 28.2811 10.5268L17.1931 16.0708C16.8225 16.2558 16.414 16.3521 15.9998 16.3521C15.5856 16.3521 15.1771 16.2558 14.8065 16.0708" fill="#8E85BE"/>
</svg>
