<svg width="24" height="24" viewBox="0 0 24 24" fill="none" xmlns="http://www.w3.org/2000/svg">
<g clip-path="url(#clip0_8033_3917)">
<path fill-rule="evenodd" clip-rule="evenodd" d="M23.723 10.94L21.686 8.15995C21.5746 8.00784 21.4289 7.88414 21.2607 7.79887C21.0925 7.7136 20.9066 7.66916 20.718 7.66916C20.5295 7.66916 20.3436 7.7136 20.1754 7.79887C20.0072 7.88414 19.8615 8.00784 19.75 8.15995L17.713 10.94C17.133 11.733 17.699 12.849 18.681 12.849H19.561C19.4292 14.0241 19.0229 15.1519 18.375 16.1411C17.727 17.1304 16.8556 17.9535 15.831 18.544C13.53 19.878 10.581 19.878 8.27804 18.544C8.02573 18.4009 7.72712 18.3633 7.44721 18.4393C7.16729 18.5153 6.92873 18.6988 6.78344 18.9498C6.63814 19.2008 6.59788 19.4991 6.67141 19.7797C6.74493 20.0603 6.9263 20.3004 7.17604 20.448C8.65903 21.307 10.3422 21.7602 12.056 21.7619C13.7691 21.7601 15.4515 21.3073 16.934 20.4489C18.4153 19.591 19.6461 18.3602 20.504 16.879C21.213 15.6437 21.6424 14.2681 21.762 12.849H22.755C22.9769 12.8491 23.1944 12.7877 23.3835 12.6716C23.5725 12.5555 23.7257 12.3893 23.826 12.1914C23.9263 11.9935 23.9698 11.7717 23.9516 11.5506C23.9334 11.3295 23.8543 11.1178 23.723 10.939M5.54004 11.152H4.54804C4.66493 10.1198 4.99235 9.12254 5.51004 8.22195C6.17583 7.07444 7.13004 6.12091 8.27804 5.45595C10.58 4.12395 13.529 4.12395 15.832 5.45595C16.0847 5.60209 16.385 5.64188 16.6669 5.56659C16.9489 5.49129 17.1894 5.30707 17.3355 5.05445C17.4817 4.80183 17.5215 4.50151 17.4462 4.21955C17.3709 3.93759 17.1867 3.69709 16.934 3.55095C13.962 1.83295 10.147 1.83295 7.17604 3.55095C5.69501 4.40918 4.46427 5.63993 3.60604 7.12095C2.89816 8.35661 2.46881 9.73202 2.34804 11.151H1.24404C1.02219 11.1508 0.804659 11.2122 0.615602 11.3283C0.426544 11.4444 0.273363 11.6106 0.173075 11.8085C0.0727863 12.0064 0.0293158 12.2282 0.047492 12.4493C0.0656682 12.6704 0.144779 12.8821 0.276038 13.061L2.42404 15.993C2.53548 16.1451 2.6812 16.2688 2.84938 16.354C3.01756 16.4393 3.20347 16.4837 3.39204 16.4837C3.5806 16.4837 3.76651 16.4393 3.93469 16.354C4.10288 16.2688 4.2486 16.1451 4.36004 15.993L6.50804 13.061C6.6393 12.8821 6.71841 12.6704 6.73659 12.4493C6.75476 12.2282 6.71129 12.0064 6.611 11.8085C6.51071 11.6106 6.35753 11.4444 6.16848 11.3283C5.97942 11.2122 5.76188 11.1508 5.54004 11.151" fill="#9095FB"/>
</g>
<defs>
<clipPath id="clip0_8033_3917">
<rect width="24" height="24" fill="white"/>
</clipPath>
</defs>
</svg>
