<svg width="24" height="24" viewBox="0 0 24 24" fill="none" xmlns="http://www.w3.org/2000/svg">
<path d="M11.9765 1.00024C18.0439 1.00024 22.9768 5.8863 23 11.9768C23.0231 18.044 18.0906 22.9769 12.0234 23.0002C5.95605 23.0234 1.02312 18.09 0.999958 12.0227C0.976975 5.95558 5.88623 1.02353 11.9765 1.00024ZM12.0009 4.18677C11.507 4.18677 11.1115 4.60625 11.1113 5.07544V5.74243H10.3457C8.59192 5.74245 7.18361 7.20004 7.18355 9.00317C7.18355 11.1028 8.41902 11.7699 9.33297 12.0911L11.1113 12.7336V16.7102H10.6914C9.72813 16.7101 8.96293 15.8703 8.96285 14.8577C8.96285 14.3636 8.54251 13.968 8.0732 13.968C7.57917 13.968 7.18355 14.3883 7.18355 14.8577C7.18364 16.8337 8.7403 18.4641 10.667 18.4641H11.0869V19.1555C11.0869 19.6494 11.4817 20.0449 11.9755 20.0452C12.4696 20.0452 12.8652 19.6248 12.8652 19.1555V18.4641H13.6308C15.3846 18.4641 16.7929 17.0065 16.7929 15.2034C16.7929 13.1038 15.5575 12.4366 14.6435 12.1155L12.8652 11.4983V7.52075H13.2851C14.2485 7.52075 15.0146 8.36151 15.0146 9.37427C15.0149 9.868 15.4342 10.2628 15.9033 10.2629C16.3971 10.2629 16.7927 9.84341 16.7929 9.37427C16.7929 7.39816 15.2362 5.76782 13.3095 5.76782H12.8896V5.07544C12.8894 4.58165 12.4947 4.1869 12.0009 4.18677ZM14.1767 13.8352C14.791 14.0656 15.1747 14.2704 15.1748 15.3196C15.1748 16.1644 14.5094 16.8811 13.7158 16.8811H12.9218L12.9482 13.3997L14.1767 13.8352ZM11.1045 7.35864V10.8401L9.87593 10.4045C9.26159 10.1742 8.87791 9.96965 8.87789 8.92017C8.87789 8.04978 9.5179 7.35864 10.3115 7.35864H11.1045Z" fill="#8B95A1"/>
<path d="M11.9765 1.00024C18.0439 1.00024 22.9768 5.8863 23 11.9768C23.0231 18.044 18.0906 22.9769 12.0234 23.0002C5.95605 23.0234 1.02312 18.09 0.999958 12.0227C0.976975 5.95558 5.88623 1.02353 11.9765 1.00024ZM12.0009 4.18677C11.507 4.18677 11.1115 4.60625 11.1113 5.07544V5.74243H10.3457C8.59192 5.74245 7.18361 7.20004 7.18355 9.00317C7.18355 11.1028 8.41902 11.7699 9.33297 12.0911L11.1113 12.7336V16.7102H10.6914C9.72813 16.7101 8.96293 15.8703 8.96285 14.8577C8.96285 14.3636 8.54251 13.968 8.0732 13.968C7.57917 13.968 7.18355 14.3883 7.18355 14.8577C7.18364 16.8337 8.7403 18.4641 10.667 18.4641H11.0869V19.1555C11.0869 19.6494 11.4817 20.0449 11.9755 20.0452C12.4696 20.0452 12.8652 19.6248 12.8652 19.1555V18.4641H13.6308C15.3846 18.4641 16.7929 17.0065 16.7929 15.2034C16.7929 13.1038 15.5575 12.4366 14.6435 12.1155L12.8652 11.4983V7.52075H13.2851C14.2485 7.52075 15.0146 8.36151 15.0146 9.37427C15.0149 9.868 15.4342 10.2628 15.9033 10.2629C16.3971 10.2629 16.7927 9.84341 16.7929 9.37427C16.7929 7.39816 15.2362 5.76782 13.3095 5.76782H12.8896V5.07544C12.8894 4.58165 12.4947 4.1869 12.0009 4.18677ZM14.1767 13.8352C14.791 14.0656 15.1747 14.2704 15.1748 15.3196C15.1748 16.1644 14.5094 16.8811 13.7158 16.8811H12.9218L12.9482 13.3997L14.1767 13.8352ZM11.1045 7.35864V10.8401L9.87593 10.4045C9.26159 10.1742 8.87791 9.96965 8.87789 8.92017C8.87789 8.04978 9.5179 7.35864 10.3115 7.35864H11.1045Z" fill="url(#paint0_linear_8033_4195)"/>
<defs>
<linearGradient id="paint0_linear_8033_4195" x1="12" y1="1.00024" x2="12" y2="23.0003" gradientUnits="userSpaceOnUse">
<stop stop-color="white"/>
<stop offset="1" stop-color="#99A0AE"/>
</linearGradient>
</defs>
</svg>
