<svg width="32" height="32" viewBox="0 0 32 32" fill="none" xmlns="http://www.w3.org/2000/svg">
<path fill-rule="evenodd" clip-rule="evenodd" d="M22.9426 13.6202L15.4986 21.0655C15.2478 21.3146 14.9087 21.4543 14.5553 21.4543C14.2018 21.4543 13.8627 21.3146 13.6119 21.0655L9.05725 16.5108C8.93346 16.387 8.83526 16.2401 8.76827 16.0783C8.70127 15.9166 8.66679 15.7432 8.66679 15.5682C8.66679 15.2146 8.80724 14.8755 9.05725 14.6255C9.30726 14.3755 9.64635 14.235 9.99992 14.235C10.3535 14.235 10.6926 14.3755 10.9426 14.6255L14.5546 18.2375L21.0573 11.7348C21.181 11.611 21.328 11.5128 21.4898 11.4458C21.6515 11.3788 21.8249 11.3444 21.9999 11.3444C22.175 11.3444 22.3483 11.3788 22.5101 11.4458C22.6718 11.5128 22.8188 11.611 22.9426 11.7348C23.0664 11.8586 23.1646 12.0056 23.2316 12.1673C23.2986 12.3291 23.3331 12.5024 23.3331 12.6775C23.3331 12.8526 23.2986 13.0259 23.2316 13.1877C23.1646 13.3494 23.0664 13.4964 22.9426 13.6202ZM15.9999 1.3335C7.89992 1.3335 1.33325 7.90016 1.33325 16.0002C1.33325 24.1002 7.89992 30.6668 15.9999 30.6668C24.0999 30.6668 30.6666 24.1002 30.6666 16.0002C30.6666 7.90016 24.0999 1.3335 15.9999 1.3335Z" fill="#8E85BE"/>
</svg>
